<svg xmlns="http://www.w3.org/2000/svg" viewBox="0 0 512 512"><defs><style>.cls-1{fill:#fff;}.cls-1,.cls-10,.cls-11,.cls-2,.cls-3,.cls-8,.cls-9{stroke:#000;stroke-miterlimit:10;}.cls-1,.cls-2,.cls-3,.cls-8{stroke-width:4px;}.cls-2,.cls-6{fill:#fcb53b;}.cls-3{fill:#ffcf71;}.cls-4{fill:#b87c4c;}.cls-10,.cls-5{fill:#fef3e2;}.cls-6{opacity:0.7;}.cls-7{fill:#f7ab3e;opacity:0.7;}.cls-8{fill:#7b542f;}.cls-9{fill:#ffe08f;}.cls-10,.cls-11,.cls-9{stroke-width:5px;}.cls-11{fill:none;}.cls-12{fill:#fa812f;}</style></defs><g id="Layer_1" data-name="Layer 1"><rect class="cls-1" x="104.637" y="402.4382" width="298.30508" height="14.91633"/><polygon class="cls-2" points="153.789 398.346 153.789 148.064 300.116 120.38 300.116 398.346 153.789 398.346"/><polygon class="cls-3" points="300.116 126.595 335.71 155.927 335.71 398.346 300.116 398.346 300.116 126.595"/><ellipse class="cls-4" cx="278.36497" cy="254.8172" rx="4.80226" ry="10.76089"/></g><g id="Layer_6" data-name="Layer 6"><polygon class="cls-5" points="302.139 214.397 461.09 102.113 461.09 165.694 302.139 227.258 302.139 214.397"/></g><g id="Layer_14" data-name="Layer 14"><polygon class="cls-6" points="302.139 225.117 461.09 137.362 461.09 167.586 302.139 233.262 302.139 225.117"/></g><g id="Layer_8" data-name="Layer 8"><polygon class="cls-5" points="302.139 239.619 381.235 223.247 461.09 209.915 461.09 239.619 302.139 256.608 302.139 248.191 302.139 239.619"/><polygon class="cls-6" points="305.808 249.4 461.09 226.479 461.09 240.014 302.139 261.634 302.139 249.944 305.808 249.4"/></g><g id="Layer_9" data-name="Layer 9"><polygon class="cls-5" points="302.139 268.416 461.09 275.018 461.09 294.304 302.139 279.858 302.139 268.416"/></g><g id="Layer_12" data-name="Layer 12"><polygon class="cls-6" points="303.472 277.309 461.09 289.984 461.09 298.613 302.139 284.168 302.139 276.506 303.472 277.309"/></g><g id="Layer_10" data-name="Layer 10"><polygon class="cls-5" points="301.633 294.304 461.596 333.944 461.596 398.663 302.839 335.562 301.633 294.304"/><polygon class="cls-7" points="302.388 314.289 302.388 337.548 460.841 404.871 460.841 367.159 302.388 314.289"/></g><g id="Layer_2" data-name="Layer 2"><path class="cls-8" d="M219.95252,384.60089S340.54119,235.229,364.79785,219.55934c5.52529-3.56931,31.00383-9.17435,35.06188,5.343s-9.29642,34.84152-20.88044,45.00363S321.404,317.813,295.70292,332.3303,219.95252,384.60089,219.95252,384.60089Z"/><path class="cls-1" d="M382.42739,218.65144s-4.39119-3.54508-3.21476-12.99,13.52078-19.34,33.91233-28.37422,22.35229-15.60463,22.35229-15.60463V191.703s-2.47921,37.86231-18.165,41.14749S382.42739,218.65144,382.42739,218.65144Z"/></g><g id="Layer_3" data-name="Layer 3"><ellipse class="cls-9" cx="152.34507" cy="192.32968" rx="14.91011" ry="29.66102" transform="matrix(0.65787, -0.75313, 0.75313, 0.65787, -92.72765, 180.53628)"/><path class="cls-10" d="M125.21273,174.86275,87.35962,211.021s.565,22.59887,9.60452,31.07344,33.33334,12.42938,33.33334,12.42938l42.93785-39.83051s-19.66478-1.21747-27.78247-8.75081-12.851-14.82928-15.15538-20.34523-.29094-12.78076-.29094-12.78076Z"/><path class="cls-11" d="M125.4889,198.68175s-31.07344-25.47654-25.42373-32.2562,25.14756,8.4372,25.14756,8.4372"/><path class="cls-12" d="M143.51956,200.68073s29.74744-15.8597,41.729-3.85745,30.16059,40.53057,20.24478,61.10341-32.63954,46.20006-25.61584,61.81665,6.11822,39.24168,28.46837,56.46S283.16723,396.274,283.16723,396.274H155.69663l.2177-163.42414,21.89741-19.39441s-2.98865,7.64993-17.65306,0S143.51956,200.68073,143.51956,200.68073Z"/></g><g id="Layer_4" data-name="Layer 4"><path class="cls-12" d="M426.97753,171.06742s-13.513,7.06651-17.52809,9.4382-11.74859,6.74157-11.74859,6.74157l2.90191-.70281,12.48572-1.94767.52739,11.46057,9.93255-8.79533,7.11979,17.50181.26369.79957s2.76505-6.055,3.05686-11.3049.26967-11.86517.26967-11.86517l1.21882-19.21293Z"/></g></svg>